<?xml version="1.0" encoding="UTF-8"?>
<svg width="632px" height="186px" viewBox="0 0 632 186" version="1.1" xmlns="http://www.w3.org/2000/svg" xmlns:xlink="http://www.w3.org/1999/xlink">
    <title>Group</title>
    <g id="Page-1" stroke="none" stroke-width="1" fill="none" fill-rule="evenodd">
        <g id="Group">
            <text id="TrueTax" font-family="AvenirNext-DemiBold, Avenir Next" font-size="136" font-weight="500" letter-spacing="3.21866667" fill="#292929">
                <tspan x="125" y="136">TrueTax</tspan>
            </text>
            <g id="shield" transform="translate(0.000000, 31.000000)"></g>
            <path d="M93.7705486,108.463999 C90.6458088,116.914077 85.9201164,124.261432 79.7229667,130.299857 C72.6690194,137.172846 63.4322773,142.634245 52.2690708,146.53006 C51.9027588,146.657501 51.5204814,146.761932 51.1364303,146.838928 C50.6290922,146.938934 50.1128849,146.99292 49.6011123,147 L49.5008863,147 C48.9554096,147 48.4072718,146.945129 47.8635688,146.838928 C47.4795177,146.761932 47.1025619,146.657501 46.7380239,146.532715 C35.561513,142.643095 26.3132406,137.184351 19.2521974,130.311362 C13.0523871,124.272937 8.32758154,116.930007 5.20727648,108.479929 C-0.466570247,93.1161517 -0.14371866,76.1912159 0.116158889,62.5903786 L0.120593603,62.3815162 C0.172923963,61.2584382 0.206628112,60.0787194 0.225254322,58.7759843 C0.32015826,52.3800155 5.41659769,47.0885392 11.8275033,46.7318801 C25.1939042,45.9875865 35.5340174,41.6377611 44.368969,33.0451968 L44.446134,32.974396 C45.9131563,31.6318353 47.761569,30.9733876 49.6011123,31 C51.3750209,31.0238334 53.1418338,31.6813958 54.556526,32.974396 L54.631917,33.0451968 C63.4686426,41.6377611 73.8087556,45.9875865 87.1751568,46.7318801 C93.5860621,47.0885392 98.6825015,52.3800155 98.7774057,58.7759843 C98.7960317,60.0875696 98.8297358,61.2655183 98.8820662,62.3815162 L98.8847271,62.4700172 C99.1437178,76.0965198 99.4647953,93.0550861 93.7705486,108.463999 Z" id="Path" fill="#1FA366" fill-rule="nonzero"></path>
            <path d="M93.7069138,108.463726 C90.5441505,116.913863 85.7609533,124.261271 79.4883934,130.299738 C72.3486098,137.172777 62.9994701,142.634214 51.7004236,146.530056 C51.3296541,146.657499 50.942725,146.761931 50.5540005,146.838927 C50.0404889,146.938934 49.5180001,146.99292 49,147 L49,31 C50.7954944,31.0230105 52.5838069,31.6805776 54.0157138,32.9735869 L54.0920223,33.0443882 C63.0362779,41.6370135 73.5022149,45.9868698 87.0312657,46.7311686 C93.5201824,47.0878303 98.678638,52.3793441 98.774697,58.7753583 C98.7935497,60.0869529 98.827664,61.26491 98.8806311,62.3809157 L98.8833244,62.4694174 C99.1454666,76.0960167 99.4704512,93.0547033 93.7069138,108.463726 Z" id="Path" fill="#229A63" fill-rule="nonzero"></path>
            <path d="M79,89.4995484 C79,105.730351 66.0449237,118.942204 50.1025364,119 L50.000444,119 C34.0110052,119 21,105.76557 21,89.4995484 C21,73.2344296 34.0110052,60 50.000444,60 L50.1025364,60 C66.0449237,60.0577962 79,73.2696492 79,89.4995484 Z" id="Path" fill="#FFFFFF" fill-rule="nonzero"></path>
            <path d="M78,89.4995484 C78,105.730351 64.9989555,118.942204 49,119 L49,60 C64.9989555,60.0577962 78,73.2696492 78,89.4995484 Z" id="Path" fill="#E1EBF0" fill-rule="nonzero"></path>
            <path d="M63.0270821,84.645485 L50.3208514,97.2981129 L47.5752621,100.031748 C46.9266501,100.677536 46.0759407,101 45.226095,101 C44.3753856,101 43.5255398,100.677536 42.8760642,100.031748 L36.9729179,94.1517242 C35.675694,92.8601482 35.675694,90.7680018 36.9729179,89.4755659 C38.2684145,88.1839902 40.372301,88.1839902 41.6695248,89.4755659 L45.226095,93.0166509 L58.330475,79.9693267 C59.627699,78.6768911 61.7315855,78.6768911 63.0270821,79.9693267 C64.324306,81.2609027 64.324306,83.3556289 63.0270821,84.645485 Z" id="Path" fill="#229A63" fill-rule="nonzero"></path>
        </g>
    </g>
</svg>